<mxfile host="app.diagrams.net" agent="Mozilla/5.0 (X11; Ubuntu; Linux x86_64; rv:109.0) Gecko/20100101 Firefox/118.0" version="24.7.17" pages="2">
  <diagram name="Página-1" id="OlrF9AZJOidByd1Jp_an">
    <mxGraphModel dx="1784" dy="621" grid="0" gridSize="10" guides="1" tooltips="1" connect="1" arrows="1" fold="1" page="0" pageScale="1" pageWidth="827" pageHeight="1169" math="0" shadow="0">
      <root>
        <mxCell id="0" />
        <mxCell id="1" parent="0" />
        <mxCell id="c5A3mr181V5u_xzYhMT--13" value="inicio" style="ellipse;whiteSpace=wrap;html=1;" parent="1" vertex="1">
          <mxGeometry x="-165" y="482" width="59" height="58" as="geometry" />
        </mxCell>
        <mxCell id="c5A3mr181V5u_xzYhMT--14" value="Declarar &lt;code&gt;grade&lt;/code&gt; como &#39;B&#39; y &lt;code&gt;marks&lt;/code&gt; como 90" style="rounded=1;whiteSpace=wrap;html=1;" parent="1" vertex="1">
          <mxGeometry x="-65" y="484" width="120" height="56" as="geometry" />
        </mxCell>
        <mxCell id="c5A3mr181V5u_xzYhMT--15" value="" style="endArrow=classic;html=1;rounded=0;fontSize=12;startSize=8;endSize=8;curved=1;exitX=1;exitY=0.5;exitDx=0;exitDy=0;entryX=0;entryY=0.5;entryDx=0;entryDy=0;" parent="1" source="c5A3mr181V5u_xzYhMT--13" target="c5A3mr181V5u_xzYhMT--14" edge="1">
          <mxGeometry width="50" height="50" relative="1" as="geometry">
            <mxPoint x="175" y="495" as="sourcePoint" />
            <mxPoint x="225" y="445" as="targetPoint" />
          </mxGeometry>
        </mxCell>
        <mxCell id="c5A3mr181V5u_xzYhMT--16" value="¿Cuál es el valor de &lt;code&gt;marks&lt;/code&gt;?" style="rhombus;whiteSpace=wrap;html=1;" parent="1" vertex="1">
          <mxGeometry x="99" y="472" width="94" height="79" as="geometry" />
        </mxCell>
        <mxCell id="c5A3mr181V5u_xzYhMT--17" value="" style="endArrow=classic;html=1;rounded=0;fontSize=12;startSize=8;endSize=8;curved=1;exitX=1;exitY=0.5;exitDx=0;exitDy=0;entryX=0;entryY=0.5;entryDx=0;entryDy=0;" parent="1" source="c5A3mr181V5u_xzYhMT--14" target="c5A3mr181V5u_xzYhMT--16" edge="1">
          <mxGeometry width="50" height="50" relative="1" as="geometry">
            <mxPoint x="175" y="495" as="sourcePoint" />
            <mxPoint x="225" y="445" as="targetPoint" />
          </mxGeometry>
        </mxCell>
        <mxCell id="c5A3mr181V5u_xzYhMT--21" value="&lt;code&gt;grade&lt;/code&gt; &amp;lt;- &#39;D&#39;" style="rounded=1;whiteSpace=wrap;html=1;" parent="1" vertex="1">
          <mxGeometry x="241" y="576" width="71" height="43" as="geometry" />
        </mxCell>
        <mxCell id="c5A3mr181V5u_xzYhMT--22" value="&lt;code&gt;grade&lt;/code&gt; &amp;lt;- &#39;C&#39;" style="rounded=1;whiteSpace=wrap;html=1;" parent="1" vertex="1">
          <mxGeometry x="246" y="514" width="71" height="43" as="geometry" />
        </mxCell>
        <mxCell id="c5A3mr181V5u_xzYhMT--23" value="&lt;code&gt;grade&lt;/code&gt; &amp;lt;- &#39;B&#39;" style="rounded=1;whiteSpace=wrap;html=1;" parent="1" vertex="1">
          <mxGeometry x="241" y="432" width="71" height="43" as="geometry" />
        </mxCell>
        <mxCell id="c5A3mr181V5u_xzYhMT--24" value="&lt;code&gt;grade&lt;/code&gt; &amp;lt;- &#39;A&#39;" style="rounded=1;whiteSpace=wrap;html=1;" parent="1" vertex="1">
          <mxGeometry x="241" y="361" width="71" height="43" as="geometry" />
        </mxCell>
        <mxCell id="c5A3mr181V5u_xzYhMT--25" value="¿Cuál es el valor de grade?" style="rhombus;whiteSpace=wrap;html=1;" parent="1" vertex="1">
          <mxGeometry x="400" y="471.5" width="94" height="79" as="geometry" />
        </mxCell>
        <mxCell id="c5A3mr181V5u_xzYhMT--26" value="" style="endArrow=classic;html=1;rounded=0;fontSize=12;startSize=8;endSize=8;curved=1;entryX=0;entryY=0.5;entryDx=0;entryDy=0;exitX=1;exitY=0.5;exitDx=0;exitDy=0;" parent="1" source="c5A3mr181V5u_xzYhMT--16" target="c5A3mr181V5u_xzYhMT--24" edge="1">
          <mxGeometry width="50" height="50" relative="1" as="geometry">
            <mxPoint x="183" y="495" as="sourcePoint" />
            <mxPoint x="233" y="445" as="targetPoint" />
          </mxGeometry>
        </mxCell>
        <mxCell id="c5A3mr181V5u_xzYhMT--30" value="marks == 90" style="edgeLabel;html=1;align=center;verticalAlign=middle;resizable=0;points=[];fontSize=12;" parent="c5A3mr181V5u_xzYhMT--26" vertex="1" connectable="0">
          <mxGeometry x="-0.0884" y="2" relative="1" as="geometry">
            <mxPoint x="-28" y="-30" as="offset" />
          </mxGeometry>
        </mxCell>
        <mxCell id="c5A3mr181V5u_xzYhMT--27" value="" style="endArrow=classic;html=1;rounded=0;fontSize=12;startSize=8;endSize=8;curved=1;entryX=0;entryY=0.5;entryDx=0;entryDy=0;exitX=1;exitY=0.5;exitDx=0;exitDy=0;" parent="1" source="c5A3mr181V5u_xzYhMT--16" target="c5A3mr181V5u_xzYhMT--23" edge="1">
          <mxGeometry width="50" height="50" relative="1" as="geometry">
            <mxPoint x="183" y="495" as="sourcePoint" />
            <mxPoint x="233" y="445" as="targetPoint" />
          </mxGeometry>
        </mxCell>
        <mxCell id="c5A3mr181V5u_xzYhMT--31" value="marks == 80" style="edgeLabel;html=1;align=center;verticalAlign=middle;resizable=0;points=[];fontSize=12;" parent="c5A3mr181V5u_xzYhMT--27" vertex="1" connectable="0">
          <mxGeometry x="-0.0476" relative="1" as="geometry">
            <mxPoint x="32" y="4" as="offset" />
          </mxGeometry>
        </mxCell>
        <mxCell id="c5A3mr181V5u_xzYhMT--28" value="" style="endArrow=classic;html=1;rounded=0;fontSize=12;startSize=8;endSize=8;curved=1;entryX=0;entryY=0.5;entryDx=0;entryDy=0;exitX=1;exitY=0.5;exitDx=0;exitDy=0;" parent="1" source="c5A3mr181V5u_xzYhMT--16" target="c5A3mr181V5u_xzYhMT--22" edge="1">
          <mxGeometry width="50" height="50" relative="1" as="geometry">
            <mxPoint x="183" y="495" as="sourcePoint" />
            <mxPoint x="233" y="445" as="targetPoint" />
          </mxGeometry>
        </mxCell>
        <mxCell id="c5A3mr181V5u_xzYhMT--32" value="marks == 50,60,70" style="edgeLabel;html=1;align=center;verticalAlign=middle;resizable=0;points=[];fontSize=12;" parent="c5A3mr181V5u_xzYhMT--28" vertex="1" connectable="0">
          <mxGeometry x="-0.1406" y="2" relative="1" as="geometry">
            <mxPoint x="41" y="-9" as="offset" />
          </mxGeometry>
        </mxCell>
        <mxCell id="c5A3mr181V5u_xzYhMT--29" value="" style="endArrow=classic;html=1;rounded=0;fontSize=12;startSize=8;endSize=8;curved=1;entryX=0;entryY=0.5;entryDx=0;entryDy=0;exitX=1;exitY=0.5;exitDx=0;exitDy=0;" parent="1" source="c5A3mr181V5u_xzYhMT--16" target="c5A3mr181V5u_xzYhMT--21" edge="1">
          <mxGeometry width="50" height="50" relative="1" as="geometry">
            <mxPoint x="195" y="515" as="sourcePoint" />
            <mxPoint x="233" y="445" as="targetPoint" />
          </mxGeometry>
        </mxCell>
        <mxCell id="c5A3mr181V5u_xzYhMT--34" value="marks == default" style="edgeLabel;html=1;align=center;verticalAlign=middle;resizable=0;points=[];fontSize=12;" parent="c5A3mr181V5u_xzYhMT--29" vertex="1" connectable="0">
          <mxGeometry x="0.1903" y="-1" relative="1" as="geometry">
            <mxPoint x="-10" as="offset" />
          </mxGeometry>
        </mxCell>
        <mxCell id="c5A3mr181V5u_xzYhMT--37" value="" style="endArrow=classic;html=1;rounded=0;fontSize=12;startSize=8;endSize=8;curved=1;entryX=0;entryY=0.5;entryDx=0;entryDy=0;exitX=1;exitY=0.5;exitDx=0;exitDy=0;" parent="1" source="c5A3mr181V5u_xzYhMT--24" target="c5A3mr181V5u_xzYhMT--25" edge="1">
          <mxGeometry width="50" height="50" relative="1" as="geometry">
            <mxPoint x="183" y="495" as="sourcePoint" />
            <mxPoint x="233" y="445" as="targetPoint" />
          </mxGeometry>
        </mxCell>
        <mxCell id="c5A3mr181V5u_xzYhMT--38" value="" style="endArrow=classic;html=1;rounded=0;fontSize=12;startSize=8;endSize=8;curved=1;entryX=0;entryY=0.5;entryDx=0;entryDy=0;exitX=1;exitY=0.5;exitDx=0;exitDy=0;" parent="1" source="c5A3mr181V5u_xzYhMT--23" target="c5A3mr181V5u_xzYhMT--25" edge="1">
          <mxGeometry width="50" height="50" relative="1" as="geometry">
            <mxPoint x="183" y="495" as="sourcePoint" />
            <mxPoint x="233" y="445" as="targetPoint" />
          </mxGeometry>
        </mxCell>
        <mxCell id="c5A3mr181V5u_xzYhMT--39" value="" style="endArrow=classic;html=1;rounded=0;fontSize=12;startSize=8;endSize=8;curved=1;entryX=0;entryY=0.5;entryDx=0;entryDy=0;exitX=1;exitY=0.5;exitDx=0;exitDy=0;" parent="1" source="c5A3mr181V5u_xzYhMT--22" target="c5A3mr181V5u_xzYhMT--25" edge="1">
          <mxGeometry width="50" height="50" relative="1" as="geometry">
            <mxPoint x="183" y="495" as="sourcePoint" />
            <mxPoint x="233" y="445" as="targetPoint" />
          </mxGeometry>
        </mxCell>
        <mxCell id="c5A3mr181V5u_xzYhMT--40" value="" style="endArrow=classic;html=1;rounded=0;fontSize=12;startSize=8;endSize=8;curved=1;entryX=0;entryY=0.5;entryDx=0;entryDy=0;exitX=1;exitY=0.5;exitDx=0;exitDy=0;" parent="1" source="c5A3mr181V5u_xzYhMT--21" target="c5A3mr181V5u_xzYhMT--25" edge="1">
          <mxGeometry width="50" height="50" relative="1" as="geometry">
            <mxPoint x="183" y="495" as="sourcePoint" />
            <mxPoint x="233" y="445" as="targetPoint" />
          </mxGeometry>
        </mxCell>
        <mxCell id="c5A3mr181V5u_xzYhMT--41" value="&lt;code&gt;Invalid&lt;/code&gt;" style="rounded=1;whiteSpace=wrap;html=1;" parent="1" vertex="1">
          <mxGeometry x="544" y="650" width="71" height="43" as="geometry" />
        </mxCell>
        <mxCell id="c5A3mr181V5u_xzYhMT--42" value="&lt;code&gt;You passed&lt;br&gt;&lt;/code&gt;" style="rounded=1;whiteSpace=wrap;html=1;" parent="1" vertex="1">
          <mxGeometry x="547" y="516" width="71" height="43" as="geometry" />
        </mxCell>
        <mxCell id="c5A3mr181V5u_xzYhMT--43" value="&lt;code&gt;Well done&lt;br&gt;&lt;/code&gt;" style="rounded=1;whiteSpace=wrap;html=1;" parent="1" vertex="1">
          <mxGeometry x="542" y="434" width="71" height="43" as="geometry" />
        </mxCell>
        <mxCell id="c5A3mr181V5u_xzYhMT--44" value="&lt;code&gt;&quot;Excellent&quot;&lt;/code&gt;" style="rounded=1;whiteSpace=wrap;html=1;" parent="1" vertex="1">
          <mxGeometry x="542" y="363" width="71" height="43" as="geometry" />
        </mxCell>
        <mxCell id="c5A3mr181V5u_xzYhMT--45" value="" style="endArrow=classic;html=1;rounded=0;fontSize=12;startSize=8;endSize=8;curved=1;entryX=0;entryY=0.5;entryDx=0;entryDy=0;exitX=1;exitY=0.5;exitDx=0;exitDy=0;" parent="1" target="c5A3mr181V5u_xzYhMT--44" edge="1">
          <mxGeometry width="50" height="50" relative="1" as="geometry">
            <mxPoint x="494" y="514" as="sourcePoint" />
            <mxPoint x="534" y="447" as="targetPoint" />
          </mxGeometry>
        </mxCell>
        <mxCell id="c5A3mr181V5u_xzYhMT--46" value="grade A" style="edgeLabel;html=1;align=center;verticalAlign=middle;resizable=0;points=[];fontSize=12;" parent="c5A3mr181V5u_xzYhMT--45" vertex="1" connectable="0">
          <mxGeometry x="-0.0884" y="2" relative="1" as="geometry">
            <mxPoint x="-28" y="-30" as="offset" />
          </mxGeometry>
        </mxCell>
        <mxCell id="c5A3mr181V5u_xzYhMT--47" value="" style="endArrow=classic;html=1;rounded=0;fontSize=12;startSize=8;endSize=8;curved=1;entryX=0;entryY=0.5;entryDx=0;entryDy=0;exitX=1;exitY=0.5;exitDx=0;exitDy=0;" parent="1" target="c5A3mr181V5u_xzYhMT--43" edge="1">
          <mxGeometry width="50" height="50" relative="1" as="geometry">
            <mxPoint x="494" y="514" as="sourcePoint" />
            <mxPoint x="534" y="447" as="targetPoint" />
          </mxGeometry>
        </mxCell>
        <mxCell id="c5A3mr181V5u_xzYhMT--48" value="grade B o C" style="edgeLabel;html=1;align=center;verticalAlign=middle;resizable=0;points=[];fontSize=12;" parent="c5A3mr181V5u_xzYhMT--47" vertex="1" connectable="0">
          <mxGeometry x="-0.0476" relative="1" as="geometry">
            <mxPoint x="32" y="4" as="offset" />
          </mxGeometry>
        </mxCell>
        <mxCell id="c5A3mr181V5u_xzYhMT--49" value="" style="endArrow=classic;html=1;rounded=0;fontSize=12;startSize=8;endSize=8;curved=1;entryX=0;entryY=0.5;entryDx=0;entryDy=0;exitX=1;exitY=0.5;exitDx=0;exitDy=0;" parent="1" target="c5A3mr181V5u_xzYhMT--42" edge="1">
          <mxGeometry width="50" height="50" relative="1" as="geometry">
            <mxPoint x="494" y="514" as="sourcePoint" />
            <mxPoint x="534" y="447" as="targetPoint" />
          </mxGeometry>
        </mxCell>
        <mxCell id="c5A3mr181V5u_xzYhMT--50" value="grade D" style="edgeLabel;html=1;align=center;verticalAlign=middle;resizable=0;points=[];fontSize=12;" parent="c5A3mr181V5u_xzYhMT--49" vertex="1" connectable="0">
          <mxGeometry x="-0.1406" y="2" relative="1" as="geometry">
            <mxPoint x="41" y="-9" as="offset" />
          </mxGeometry>
        </mxCell>
        <mxCell id="c5A3mr181V5u_xzYhMT--51" value="" style="endArrow=classic;html=1;rounded=0;fontSize=12;startSize=8;endSize=8;curved=1;entryX=0;entryY=0.5;entryDx=0;entryDy=0;exitX=1;exitY=0.5;exitDx=0;exitDy=0;" parent="1" target="c5A3mr181V5u_xzYhMT--41" edge="1">
          <mxGeometry width="50" height="50" relative="1" as="geometry">
            <mxPoint x="494" y="514" as="sourcePoint" />
            <mxPoint x="534" y="447" as="targetPoint" />
          </mxGeometry>
        </mxCell>
        <mxCell id="c5A3mr181V5u_xzYhMT--52" value="&lt;div&gt;default&lt;/div&gt;" style="edgeLabel;html=1;align=center;verticalAlign=middle;resizable=0;points=[];fontSize=12;" parent="c5A3mr181V5u_xzYhMT--51" vertex="1" connectable="0">
          <mxGeometry x="0.1903" y="-1" relative="1" as="geometry">
            <mxPoint x="-29" y="48" as="offset" />
          </mxGeometry>
        </mxCell>
        <mxCell id="c5A3mr181V5u_xzYhMT--53" value="&lt;code&gt;Try again&lt;br&gt;&lt;/code&gt;" style="rounded=1;whiteSpace=wrap;html=1;" parent="1" vertex="1">
          <mxGeometry x="547" y="585.29" width="71" height="43" as="geometry" />
        </mxCell>
        <mxCell id="c5A3mr181V5u_xzYhMT--58" value="" style="endArrow=classic;html=1;rounded=0;fontSize=12;startSize=8;endSize=8;curved=1;entryX=0;entryY=0.5;entryDx=0;entryDy=0;exitX=1;exitY=0.5;exitDx=0;exitDy=0;" parent="1" source="c5A3mr181V5u_xzYhMT--25" target="c5A3mr181V5u_xzYhMT--53" edge="1">
          <mxGeometry width="50" height="50" relative="1" as="geometry">
            <mxPoint x="442" y="495" as="sourcePoint" />
            <mxPoint x="492" y="445" as="targetPoint" />
          </mxGeometry>
        </mxCell>
        <mxCell id="c5A3mr181V5u_xzYhMT--59" value="grade F" style="edgeLabel;html=1;align=center;verticalAlign=middle;resizable=0;points=[];fontSize=12;" parent="c5A3mr181V5u_xzYhMT--58" vertex="1" connectable="0">
          <mxGeometry x="0.1428" y="-3" relative="1" as="geometry">
            <mxPoint x="11" as="offset" />
          </mxGeometry>
        </mxCell>
        <mxCell id="c5A3mr181V5u_xzYhMT--60" value="" style="endArrow=classic;html=1;rounded=0;fontSize=12;startSize=8;endSize=8;curved=1;exitX=1;exitY=0.5;exitDx=0;exitDy=0;entryX=0;entryY=0.5;entryDx=0;entryDy=0;" parent="1" source="c5A3mr181V5u_xzYhMT--44" target="c5A3mr181V5u_xzYhMT--65" edge="1">
          <mxGeometry width="50" height="50" relative="1" as="geometry">
            <mxPoint x="655" y="370.29" as="sourcePoint" />
            <mxPoint x="764" y="440" as="targetPoint" />
          </mxGeometry>
        </mxCell>
        <mxCell id="c5A3mr181V5u_xzYhMT--61" value="" style="endArrow=classic;html=1;rounded=0;fontSize=12;startSize=8;endSize=8;curved=1;exitX=1;exitY=0.5;exitDx=0;exitDy=0;entryX=0;entryY=0.5;entryDx=0;entryDy=0;" parent="1" source="c5A3mr181V5u_xzYhMT--43" target="c5A3mr181V5u_xzYhMT--65" edge="1">
          <mxGeometry width="50" height="50" relative="1" as="geometry">
            <mxPoint x="655" y="441" as="sourcePoint" />
            <mxPoint x="769" y="460" as="targetPoint" />
          </mxGeometry>
        </mxCell>
        <mxCell id="c5A3mr181V5u_xzYhMT--62" value="" style="endArrow=classic;html=1;rounded=0;fontSize=12;startSize=8;endSize=8;curved=1;exitX=1;exitY=0.5;exitDx=0;exitDy=0;entryX=0;entryY=0.5;entryDx=0;entryDy=0;" parent="1" source="c5A3mr181V5u_xzYhMT--42" target="c5A3mr181V5u_xzYhMT--65" edge="1">
          <mxGeometry width="50" height="50" relative="1" as="geometry">
            <mxPoint x="660" y="523.29" as="sourcePoint" />
            <mxPoint x="712" y="487" as="targetPoint" />
          </mxGeometry>
        </mxCell>
        <mxCell id="c5A3mr181V5u_xzYhMT--63" value="" style="endArrow=classic;html=1;rounded=0;fontSize=12;startSize=8;endSize=8;curved=1;exitX=1;exitY=0.5;exitDx=0;exitDy=0;entryX=0;entryY=0.5;entryDx=0;entryDy=0;" parent="1" source="c5A3mr181V5u_xzYhMT--53" target="c5A3mr181V5u_xzYhMT--65" edge="1">
          <mxGeometry width="50" height="50" relative="1" as="geometry">
            <mxPoint x="655" y="585.29" as="sourcePoint" />
            <mxPoint x="724" y="488" as="targetPoint" />
          </mxGeometry>
        </mxCell>
        <mxCell id="c5A3mr181V5u_xzYhMT--64" value="" style="endArrow=classic;html=1;rounded=0;fontSize=12;startSize=8;endSize=8;curved=1;exitX=1;exitY=0.5;exitDx=0;exitDy=0;entryX=0;entryY=0.5;entryDx=0;entryDy=0;" parent="1" source="c5A3mr181V5u_xzYhMT--41" target="c5A3mr181V5u_xzYhMT--65" edge="1">
          <mxGeometry width="50" height="50" relative="1" as="geometry">
            <mxPoint x="442" y="495" as="sourcePoint" />
            <mxPoint x="729" y="506" as="targetPoint" />
          </mxGeometry>
        </mxCell>
        <mxCell id="c5A3mr181V5u_xzYhMT--65" value="Imprimir &#39;Your grade is&#39; + grade&quot;" style="rounded=1;whiteSpace=wrap;html=1;" parent="1" vertex="1">
          <mxGeometry x="769" y="489" width="96" height="46" as="geometry" />
        </mxCell>
        <mxCell id="c5A3mr181V5u_xzYhMT--67" value="inicio" style="ellipse;whiteSpace=wrap;html=1;" parent="1" vertex="1">
          <mxGeometry x="907" y="482" width="59" height="58" as="geometry" />
        </mxCell>
        <mxCell id="c5A3mr181V5u_xzYhMT--68" value="" style="endArrow=classic;html=1;rounded=0;fontSize=12;startSize=8;endSize=8;curved=1;entryX=0;entryY=0.5;entryDx=0;entryDy=0;exitX=1;exitY=0.5;exitDx=0;exitDy=0;" parent="1" source="c5A3mr181V5u_xzYhMT--65" target="c5A3mr181V5u_xzYhMT--67" edge="1">
          <mxGeometry width="50" height="50" relative="1" as="geometry">
            <mxPoint x="499" y="495" as="sourcePoint" />
            <mxPoint x="549" y="445" as="targetPoint" />
          </mxGeometry>
        </mxCell>
      </root>
    </mxGraphModel>
  </diagram>
  <diagram id="I19Z7bnLxr2zL25hHM1A" name="Página-2">
    <mxGraphModel dx="1384" dy="621" grid="0" gridSize="10" guides="1" tooltips="1" connect="1" arrows="1" fold="1" page="1" pageScale="1" pageWidth="827" pageHeight="1169" math="0" shadow="0">
      <root>
        <mxCell id="0" />
        <mxCell id="1" parent="0" />
        <mxCell id="k54IRM-mKhcqNFZ9TLsk-1" value="inicio" style="ellipse;whiteSpace=wrap;html=1;" vertex="1" parent="1">
          <mxGeometry x="80" y="410" width="59" height="58" as="geometry" />
        </mxCell>
        <mxCell id="k54IRM-mKhcqNFZ9TLsk-2" value="&lt;div&gt;Definir cte&lt;/div&gt;" style="rounded=1;whiteSpace=wrap;html=1;" vertex="1" parent="1">
          <mxGeometry x="170" y="415.5" width="88" height="47" as="geometry" />
        </mxCell>
        <mxCell id="k54IRM-mKhcqNFZ9TLsk-3" value="declarar variable" style="rounded=1;whiteSpace=wrap;html=1;" vertex="1" parent="1">
          <mxGeometry x="289" y="415.5" width="88" height="47" as="geometry" />
        </mxCell>
        <mxCell id="k54IRM-mKhcqNFZ9TLsk-4" value="calcular area" style="rounded=1;whiteSpace=wrap;html=1;" vertex="1" parent="1">
          <mxGeometry x="408" y="415.5" width="88" height="47" as="geometry" />
        </mxCell>
        <mxCell id="k54IRM-mKhcqNFZ9TLsk-5" value="&lt;div&gt;imprimir area&lt;/div&gt;" style="rounded=1;whiteSpace=wrap;html=1;" vertex="1" parent="1">
          <mxGeometry x="536" y="415.5" width="88" height="47" as="geometry" />
        </mxCell>
        <mxCell id="k54IRM-mKhcqNFZ9TLsk-6" value="&lt;div&gt;fin&lt;/div&gt;" style="ellipse;whiteSpace=wrap;html=1;" vertex="1" parent="1">
          <mxGeometry x="664" y="410" width="59" height="58" as="geometry" />
        </mxCell>
        <mxCell id="k54IRM-mKhcqNFZ9TLsk-7" value="" style="endArrow=classic;html=1;rounded=0;fontSize=12;startSize=8;endSize=8;curved=1;exitX=1;exitY=0.5;exitDx=0;exitDy=0;" edge="1" source="k54IRM-mKhcqNFZ9TLsk-1" parent="1">
          <mxGeometry width="50" height="50" relative="1" as="geometry">
            <mxPoint x="394" y="494" as="sourcePoint" />
            <mxPoint x="175" y="439" as="targetPoint" />
          </mxGeometry>
        </mxCell>
        <mxCell id="k54IRM-mKhcqNFZ9TLsk-8" value="" style="endArrow=classic;html=1;rounded=0;fontSize=12;startSize=8;endSize=8;curved=1;exitX=1;exitY=0.5;exitDx=0;exitDy=0;entryX=0;entryY=0.5;entryDx=0;entryDy=0;" edge="1" source="k54IRM-mKhcqNFZ9TLsk-2" target="k54IRM-mKhcqNFZ9TLsk-3" parent="1">
          <mxGeometry width="50" height="50" relative="1" as="geometry">
            <mxPoint x="394" y="494" as="sourcePoint" />
            <mxPoint x="444" y="444" as="targetPoint" />
          </mxGeometry>
        </mxCell>
        <mxCell id="k54IRM-mKhcqNFZ9TLsk-9" value="" style="endArrow=classic;html=1;rounded=0;fontSize=12;startSize=8;endSize=8;curved=1;exitX=1;exitY=0.5;exitDx=0;exitDy=0;" edge="1" source="k54IRM-mKhcqNFZ9TLsk-3" parent="1">
          <mxGeometry width="50" height="50" relative="1" as="geometry">
            <mxPoint x="394" y="494" as="sourcePoint" />
            <mxPoint x="408" y="439" as="targetPoint" />
          </mxGeometry>
        </mxCell>
        <mxCell id="k54IRM-mKhcqNFZ9TLsk-10" value="" style="endArrow=classic;html=1;rounded=0;fontSize=12;startSize=8;endSize=8;curved=1;entryX=0;entryY=0.5;entryDx=0;entryDy=0;exitX=1;exitY=0.5;exitDx=0;exitDy=0;" edge="1" source="k54IRM-mKhcqNFZ9TLsk-4" target="k54IRM-mKhcqNFZ9TLsk-5" parent="1">
          <mxGeometry width="50" height="50" relative="1" as="geometry">
            <mxPoint x="394" y="494" as="sourcePoint" />
            <mxPoint x="444" y="444" as="targetPoint" />
          </mxGeometry>
        </mxCell>
        <mxCell id="k54IRM-mKhcqNFZ9TLsk-11" value="" style="endArrow=classic;html=1;rounded=0;fontSize=12;startSize=8;endSize=8;curved=1;entryX=0;entryY=0.5;entryDx=0;entryDy=0;exitX=1;exitY=0.5;exitDx=0;exitDy=0;" edge="1" source="k54IRM-mKhcqNFZ9TLsk-5" target="k54IRM-mKhcqNFZ9TLsk-6" parent="1">
          <mxGeometry width="50" height="50" relative="1" as="geometry">
            <mxPoint x="394" y="494" as="sourcePoint" />
            <mxPoint x="444" y="444" as="targetPoint" />
          </mxGeometry>
        </mxCell>
      </root>
    </mxGraphModel>
  </diagram>
</mxfile>
